<svg width="820" height="214" viewBox="0 0 820 214" fill="none" xmlns="http://www.w3.org/2000/svg">
<rect width="820" height="214" fill="none"/>
<g id="loveText 1">
<g clip-path="url(#clip0)">
<path id="Vector" d="M4.64999 50.65C1.99999 48.1 0.479996 45.46 0.109996 42.8C-0.0864012 41.5235 0.0323404 40.2183 0.455882 38.9983C0.879423 37.7782 1.59491 36.6802 2.53999 35.8L38.37 -0.02005C39.06 0.48995 40.15 1.31004 41.62 2.45004C43.0212 3.52244 44.357 4.67781 45.62 5.91C46.7543 6.98419 47.8041 8.14427 48.76 9.37997C49.5077 10.337 50.0614 11.4308 50.39 12.5999C50.66 13.6611 50.6078 14.7787 50.24 15.81C49.7196 17.1187 48.9407 18.3091 47.95 19.31C39.1833 28.77 30.4167 38.2367 21.65 47.7101C28.58 54.1701 35.72 60.47 43 66.55C42.9436 67.6567 42.735 68.7503 42.38 69.8C41.9988 71.0384 41.3731 72.1877 40.54 73.18C38.87 75.18 37.15 76.18 35.36 76.06C33.3409 75.8728 31.443 75.0136 29.97 73.62C21.37 66.12 12.96 58.49 4.64999 50.65Z" fill="black"/>
<path id="Vector_2" d="M57.99 57.8499C60.886 54.1874 64.5753 51.2299 68.78 49.2C72.5983 47.3948 76.7571 46.4231 80.98 46.3499C85.2987 46.3041 89.5904 47.0357 93.65 48.5099C98.099 50.118 102.3 52.343 106.13 55.1199C109.99 57.8256 113.448 61.0644 116.4 64.7399C119.086 68.0952 121.155 71.901 122.51 75.9799C123.801 79.9883 124.214 84.2278 123.72 88.41C123.136 93.0365 121.534 97.4762 119.03 101.41C116.654 105.437 113.378 108.859 109.46 111.41C105.816 113.732 101.658 115.126 97.35 115.47C92.7165 115.82 88.0596 115.245 83.65 113.78C73.5225 110.297 64.6322 103.934 58.07 95.4699C55.213 91.755 53.1225 87.5095 51.92 82.9799C50.8477 78.7778 50.7826 74.382 51.73 70.1499C52.8046 65.6089 54.9511 61.3912 57.99 57.8499V57.8499ZM74.87 71.18C71.28 75.92 69.78 80.3599 70.43 84.5199C71.08 88.6799 73.48 92.27 77.6 95.21C81.72 98.15 85.98 99.3 90.1 98.55C94.22 97.8 97.91 94.9099 101.21 89.9699C104.51 85.0299 105.75 80.6199 105.08 76.6099C104.41 72.5999 102.13 69.25 98.21 66.45C94.29 63.65 90.43 62.61 86.37 63.21C82.31 63.81 78.46 66.44 74.87 71.18V71.18Z" fill="black"/>
<path id="Vector_3" d="M152.47 151.64C151.28 151.96 149.21 151.64 146.8 151.12C144.21 150.505 141.71 149.56 139.36 148.31C136.676 146.981 134.229 145.217 132.12 143.09C130.35 141.2 129.41 139.39 129.34 137.71C129.27 136.03 129.26 133.71 129.29 131.02C129.32 128.33 129.46 125.33 129.7 122.08C129.94 118.83 130.26 115.42 130.65 111.84C131.04 108.26 131.54 104.66 132.14 101.07C132.74 97.48 133.38 93.9899 134.08 90.5999C134.78 87.2099 135.52 84.07 136.31 81.19C138.024 80.9601 139.765 81.0174 141.46 81.3599C143.576 81.7213 145.609 82.4634 147.46 83.55C149.521 84.6302 151.268 86.2252 152.53 88.18C153.55 89.9133 153.757 92.1766 153.15 94.9699C151.817 101.557 150.71 107.927 149.83 114.08C148.95 120.233 148.097 126.673 147.27 133.4C147.52 133.54 147.65 133.6 147.91 133.73C152.637 129.27 157.61 124.29 162.83 118.79C168.05 113.29 173.09 107.73 177.95 102.11C179.445 102.172 180.932 102.349 182.4 102.64C184.083 102.985 185.715 103.539 187.26 104.29C189.469 105.235 191.398 106.733 192.86 108.64C193.495 109.505 193.872 110.532 193.948 111.603C194.024 112.673 193.796 113.744 193.29 114.69C192.312 116.587 191.096 118.352 189.67 119.94C187.83 122.12 185.63 124.517 183.07 127.13C180.51 129.743 177.727 132.41 174.72 135.13C171.707 137.843 168.76 140.343 165.88 142.63C163 144.91 160.35 146.87 157.96 148.5C156.274 149.78 154.428 150.835 152.47 151.64V151.64Z" fill="black"/>
<path id="Vector_4" d="M201.24 120.78C201.671 119.609 202.354 118.548 203.24 117.67C204.127 116.792 205.195 116.12 206.37 115.7C208.951 114.916 211.731 115.108 214.18 116.24C225.28 120.693 236.527 124.753 247.92 128.42C248.205 129.435 248.346 130.486 248.34 131.54C248.359 132.806 248.17 134.066 247.78 135.27C247.033 137.643 245.917 139.137 244.43 139.75C242.795 140.377 240.985 140.377 239.35 139.75C230.43 136.75 226 135.21 217.2 131.85C215.89 135.26 215.2 136.96 213.94 140.37C223.49 144.01 228.3 145.72 237.94 148.9C238.244 149.902 238.406 150.943 238.42 151.99C238.457 153.243 238.271 154.492 237.87 155.68C237.103 158.04 235.973 159.527 234.48 160.14C232.788 160.75 230.93 160.718 229.26 160.05C221.17 157.32 217.15 155.87 209.15 152.82L205.48 162.43C214.91 166.06 224.48 169.43 234.14 172.5C234.472 173.521 234.65 174.586 234.67 175.66C234.726 176.927 234.557 178.193 234.17 179.4C233.41 181.767 232.237 183.263 230.65 183.89C228.867 184.509 226.922 184.477 225.16 183.8C213.967 180.087 202.893 176.043 191.94 171.67C188.71 170.37 186.47 168.56 185.24 166.28C184.634 165.163 184.301 163.918 184.268 162.648C184.235 161.377 184.503 160.117 185.05 158.97C190.45 146.263 195.847 133.533 201.24 120.78Z" fill="black"/>
<path id="Vector_5" d="M304.65 203.39C303.275 203.406 301.899 203.349 300.53 203.22C298.731 203.077 296.942 202.834 295.17 202.49C291.56 201.77 288.95 200.7 287.37 199.33C285.79 197.96 285.37 195.67 286.05 192.48C287.18 187.31 287.74 184.72 288.88 179.55C287.507 176.783 286.07 173.72 284.57 170.36C283.08 167 281.68 163.57 280.36 160.1C279.04 156.63 277.9 153.22 276.92 149.91C276.025 146.959 275.324 143.952 274.82 140.91C276.199 139.93 277.739 139.198 279.37 138.75C281.393 138.199 283.527 138.199 285.55 138.75C287.89 139.217 290.069 140.285 291.87 141.85C293.35 143.26 294.56 145.54 295.52 148.69C297.66 155.86 298.79 159.44 301.17 166.59L301.83 166.73C303.257 164.95 304.513 163.313 305.6 161.82C306.68 160.34 307.74 158.82 308.78 157.34L312.01 152.66C313.13 151.04 314.39 149.17 315.81 147.03C317.281 146.669 318.786 146.464 320.3 146.42C321.819 146.365 323.339 146.455 324.84 146.69C327.074 146.992 329.165 147.961 330.84 149.47C331.615 150.194 332.192 151.104 332.514 152.115C332.836 153.125 332.893 154.201 332.68 155.24C332.49 156.196 332.152 157.117 331.68 157.97C330.752 159.614 329.664 161.162 328.43 162.59C326.78 164.59 324.43 167.35 321.22 170.74C318.01 174.13 313.72 178.51 308.13 183.8C306.83 191.64 306.12 195.56 304.65 203.39Z" fill="black"/>
<path id="Vector_6" d="M333.65 178.24C334.205 173.629 335.754 169.194 338.19 165.24C340.382 161.722 343.288 158.704 346.72 156.38C350.194 154.082 354.062 152.445 358.13 151.55C362.557 150.58 367.103 150.27 371.62 150.63C376.141 150.912 380.594 151.873 384.83 153.48C388.737 154.952 392.342 157.124 395.47 159.89C398.555 162.674 401.013 166.083 402.68 169.89C404.516 174.166 405.407 178.788 405.29 183.44C405.354 188.116 404.366 192.747 402.4 196.99C400.561 200.839 397.815 204.184 394.4 206.74C390.762 209.398 386.627 211.299 382.24 212.33C377.269 213.509 372.143 213.9 367.05 213.49C361.947 213.168 356.93 212.027 352.19 210.11C347.999 208.448 344.197 205.939 341.02 202.74C338.058 199.7 335.849 196.008 334.57 191.96C333.224 187.516 332.909 182.824 333.65 178.24V178.24ZM353.96 180.64C353.36 186.56 354.32 191.13 356.91 194.32C359.5 197.51 363.23 199.32 368.06 199.66C372.89 200 376.97 198.77 379.99 195.98C383.01 193.19 384.61 188.81 384.87 182.87C385.13 176.93 383.96 172.53 381.42 169.46C378.88 166.39 375.34 164.71 370.73 164.38C368.709 164.15 366.662 164.337 364.717 164.931C362.771 165.524 360.968 166.511 359.42 167.83C356.42 170.47 354.57 174.78 353.98 180.64H353.96Z" fill="black"/>
<path id="Vector_7" d="M478.43 187.03C478.876 190.343 478.533 193.714 477.43 196.87C476.311 199.977 474.446 202.762 472 204.98C469.199 207.496 465.935 209.442 462.39 210.71C453.718 213.737 444.39 214.366 435.39 212.53C431.711 211.738 428.218 210.248 425.1 208.14C422.382 206.267 420.164 203.758 418.64 200.83C417.132 197.848 416.351 194.552 416.36 191.21C416.2 178.73 416.043 166.25 415.89 153.77C416.68 153.63 417.89 153.44 419.64 153.17C421.273 152.919 422.919 152.765 424.57 152.71C426.023 152.658 427.478 152.724 428.92 152.91C430.058 153.05 431.154 153.424 432.14 154.01C433.039 154.58 433.752 155.4 434.19 156.37C434.729 157.663 435.014 159.049 435.03 160.45L436.47 190.31C436.463 191.689 436.769 193.051 437.365 194.295C437.961 195.539 438.831 196.631 439.91 197.49C442.328 199.085 445.202 199.843 448.092 199.648C450.982 199.453 453.728 198.315 455.91 196.41C456.848 195.407 457.549 194.206 457.961 192.896C458.373 191.585 458.486 190.2 458.29 188.84C457.21 176.5 456.133 164.167 455.06 151.84C455.83 151.64 457.06 151.35 458.76 150.96C460.369 150.586 461.998 150.309 463.64 150.13C465.087 149.965 466.546 149.924 468 150.01C469.143 150.065 470.263 150.354 471.29 150.86C472.231 151.358 473.003 152.124 473.51 153.06C474.149 154.306 474.539 155.665 474.66 157.06L478.43 187.03Z" fill="black"/>
<path id="Vector_8" d="M544.15 148.69C538.65 150.11 534.8 152.6 532.53 156.28C530.26 159.96 529.71 164.53 530.94 170.01C532.17 175.49 534.84 179.46 538.99 181.64C543.14 183.82 548.19 184.2 554.05 182.64C556.747 182.004 559.323 180.937 561.68 179.48C563.596 178.232 565.433 176.866 567.18 175.39C568.634 175.856 569.968 176.635 571.09 177.67C572.22 178.765 573.03 180.148 573.43 181.67C574.2 184.24 573.11 186.94 570.11 189.73C567.11 192.52 561.99 194.93 554.74 196.73C549.784 198.024 544.67 198.609 539.55 198.47C534.979 198.378 530.474 197.357 526.31 195.47C522.389 193.657 518.972 190.91 516.36 187.47C513.491 183.509 511.602 178.923 510.85 174.09C509.911 169.547 509.982 164.853 511.06 160.34C512.054 156.318 513.865 152.543 516.38 149.25C518.932 145.956 522.08 143.172 525.66 141.04C529.486 138.744 533.636 137.039 537.97 135.98C544.37 134.36 549.56 133.98 553.61 134.83C557.66 135.68 560.14 137.6 561.01 140.54C561.496 142.056 561.45 143.693 560.88 145.18C560.347 146.58 559.534 147.856 558.49 148.93C556.287 148.387 554.043 148.029 551.78 147.86C549.208 147.707 546.629 147.988 544.15 148.69Z" fill="black"/>
<path id="Vector_9" d="M638.27 142.78C639.68 145.815 640.336 149.147 640.18 152.49C639.992 155.811 638.992 159.035 637.27 161.88C635.27 165.125 632.666 167.956 629.6 170.22C622.081 175.672 613.244 179.021 604 179.92C600.219 180.25 596.41 179.849 592.78 178.74C589.616 177.748 586.742 175.997 584.41 173.64C582.089 171.227 580.375 168.296 579.41 165.09L568.1 129.4C568.81 129.04 569.97 128.48 571.54 127.73C573.043 127.009 574.59 126.381 576.17 125.85C577.559 125.364 578.988 125 580.44 124.76C581.578 124.559 582.745 124.593 583.87 124.86C584.904 125.137 585.834 125.715 586.54 126.52C587.436 127.6 588.115 128.843 588.54 130.18C591.873 139.56 595.227 148.943 598.6 158.33C598.994 159.658 599.688 160.878 600.627 161.895C601.567 162.913 602.728 163.702 604.02 164.2C606.833 165.008 609.832 164.884 612.568 163.845C615.305 162.807 617.631 160.911 619.2 158.44C619.825 157.203 620.16 155.839 620.179 154.453C620.198 153.067 619.901 151.694 619.31 150.44L605.44 115.97C606.13 115.55 607.25 114.91 608.77 114.03C610.225 113.196 611.727 112.448 613.27 111.79C614.629 111.202 616.033 110.727 617.47 110.37C618.594 110.082 619.764 110.028 620.91 110.21C621.964 110.406 622.938 110.906 623.71 111.65C624.69 112.657 625.465 113.846 625.99 115.15C630.077 124.363 634.17 133.573 638.27 142.78Z" fill="black"/>
<path id="Vector_10" d="M638.73 116.46C637.79 115.913 636.928 115.24 636.17 114.46C635.228 113.507 634.46 112.397 633.9 111.18C632.827 108.873 632.637 106.943 633.33 105.39C634.109 103.754 635.456 102.457 637.12 101.74C651.53 94.74 665.7 87.22 679.4 78.93C680.392 79.3942 681.317 79.9896 682.15 80.7C683.184 81.5413 684.064 82.5565 684.75 83.7C686.07 85.88 686.46 87.79 685.9 89.42C685.238 91.1679 683.962 92.6147 682.31 93.49C677.96 96.05 675.77 97.31 671.37 99.75L693.37 139.33C692.275 140.246 691.13 141.101 689.94 141.89C688.371 142.981 686.742 143.983 685.06 144.89C683.601 145.682 682.08 146.351 680.51 146.89C679.302 147.323 678.022 147.52 676.74 147.47C675.62 147.401 674.548 146.989 673.67 146.29C672.598 145.372 671.738 144.233 671.15 142.95C665.39 131.657 659.637 120.36 653.89 109.06C647.88 112.1 644.84 113.59 638.73 116.46Z" fill="black"/>
<path id="Vector_11" d="M738.98 111.07C737.96 112.094 736.885 113.062 735.76 113.97C734.275 115.205 732.723 116.357 731.11 117.42C729.718 118.361 728.249 119.184 726.72 119.88C725.55 120.452 724.28 120.792 722.98 120.88C721.854 120.924 720.743 120.616 719.8 120C718.646 119.192 717.683 118.141 716.98 116.92L689.38 73.13C690 72.58 691 71.74 692.38 70.58C693.686 69.4742 695.059 68.4489 696.49 67.51C697.744 66.6666 699.065 65.9275 700.44 65.3C701.512 64.7967 702.676 64.5176 703.86 64.4799C704.926 64.4728 705.97 64.7826 706.86 65.37C708.008 66.1708 708.987 67.1903 709.74 68.37C719.5 82.59 729.247 96.8234 738.98 111.07Z" fill="black"/>
<path id="Vector_12" d="M722.94 61.33C722.163 60.3471 721.614 59.204 721.332 57.9831C721.05 56.7623 721.043 55.4941 721.31 54.27C722.03 51.5889 723.696 49.2589 726 47.7101C735.947 40.1701 745.613 32.2834 755 24.05C756.051 24.3029 757.061 24.7035 758 25.24C759.106 25.8597 760.097 26.6647 760.93 27.62C762.577 29.48 763.243 31.2266 762.93 32.86C762.564 34.6541 761.567 36.2576 760.12 37.38C752.64 43.82 748.84 46.9399 741.12 52.9799L746.73 60.16C755.08 53.61 759.2 50.22 767.3 43.16C768.349 43.3919 769.359 43.7724 770.3 44.29C771.402 44.8861 772.385 45.6792 773.2 46.63C774.84 48.4966 775.507 50.2533 775.2 51.9C774.787 53.7321 773.743 55.3604 772.25 56.5C765.43 62.3 761.97 65.12 754.98 70.61L761.31 78.7101C769.65 72.2101 777.84 65.42 785.77 58.42C786.818 58.6398 787.828 59.0103 788.77 59.52C789.908 60.1041 790.926 60.898 791.77 61.86C793.42 63.72 794.07 65.52 793.77 67.25C793.311 69.1714 792.214 70.8807 790.66 72.0999C781.327 80.0999 771.77 87.8267 761.99 95.28C759.12 97.45 756.35 98.49 753.71 98.4C752.433 98.3648 751.182 98.0242 750.064 97.4066C748.945 96.7889 747.99 95.9122 747.28 94.8499L722.94 61.33Z" fill="black"/>
<path id="Vector_13" d="M799.79 53.6499C798.92 52.7256 798.274 51.6134 797.903 50.3996C797.532 49.1857 797.446 47.9027 797.65 46.6499C798.03 43.9399 799.57 41.3099 802.27 38.7199C804.97 36.1299 807.67 34.72 810.4 34.42C811.674 34.2478 812.97 34.3761 814.186 34.7946C815.401 35.2131 816.502 35.9101 817.4 36.83C818.32 37.7261 819.013 38.8285 819.421 40.0458C819.83 41.2632 819.943 42.5604 819.75 43.83C819.41 46.6 817.84 49.3499 815.06 52.0199C812.28 54.6899 809.47 56.13 806.7 56.34C805.417 56.4826 804.118 56.3123 802.915 55.8439C801.711 55.3755 800.639 54.6227 799.79 53.6499ZM781.79 2.52994C782.85 3.58994 784.357 5.15656 786.31 7.22989C788.263 9.30323 790.317 11.59 792.47 14.09C794.63 16.5967 796.727 19.1666 798.76 21.8C800.559 24.081 802.228 26.4614 803.76 28.93C803.603 29.4426 803.388 29.9358 803.12 30.3999C802.763 31.0274 802.373 31.635 801.95 32.2199C801.51 32.8299 801.05 33.4199 800.56 33.9799C800.07 34.5399 799.56 34.98 799.2 35.43C797.755 36.8799 796.062 38.0586 794.2 38.9099C793.471 39.2344 792.67 39.3635 791.875 39.2846C791.081 39.2057 790.321 38.9216 789.67 38.46C787.758 37.1541 785.946 35.7066 784.25 34.1299C781.957 32.0699 779.503 29.7966 776.89 27.31C774.277 24.8233 771.737 22.3266 769.27 19.82C766.79 17.3 764.71 15.1266 763.03 13.3C763.74 11.6121 764.625 10.0033 765.67 8.49991C766.765 6.89833 768.021 5.41388 769.42 4.06998C771.67 1.90998 773.83 0.649982 775.93 0.319982C777.01 0.17406 778.11 0.29972 779.13 0.685582C780.149 1.07144 781.057 1.7053 781.77 2.52994H781.79Z" fill="black"/>
</g>
</g>
<defs>
<clipPath id="clip0">
<rect width="819.78" height="213.59" fill="white"/>
</clipPath>
</defs>
</svg>
