<svg width="414" height="737" viewBox="0 0 414 737" fill="none" xmlns="http://www.w3.org/2000/svg">
<rect width="414" height="737" fill="#E5E5E5"/>
<g id="iPhone 8 Plus - 1">
<rect y="1" width="414" height="736" fill="#FEABD5"/>
</g>
<g id="Ellipse 1">
<path d="M127 70C127 80.6581 118.554 89 108.5 89C98.446 89 90 80.6581 90 70C90 59.3419 98.446 51 108.5 51C118.554 51 127 59.3419 127 70Z" stroke="#FEABD5" stroke-width="20"/>
<path d="M127 70C127 80.6581 118.554 89 108.5 89C98.446 89 90 80.6581 90 70C90 59.3419 98.446 51 108.5 51C118.554 51 127 59.3419 127 70Z" stroke="black" stroke-opacity="0.055" stroke-width="20"/>
</g>
<g id="Ellipse 2">
<circle cx="100" cy="225" r="19" stroke="#FEABD5" stroke-width="20"/>
<circle cx="100" cy="225" r="19" stroke="black" stroke-opacity="0.055" stroke-width="20"/>
</g>
<g id="Ellipse 3">
<path d="M234 121.951C234 132.005 225.658 140.451 215 140.451C204.342 140.451 196 132.005 196 121.951C196 111.897 204.342 103.451 215 103.451C225.658 103.451 234 111.897 234 121.951Z" stroke="#FEABD5" stroke-width="20"/>
<path d="M234 121.951C234 132.005 225.658 140.451 215 140.451C204.342 140.451 196 132.005 196 121.951C196 111.897 204.342 103.451 215 103.451C225.658 103.451 234 111.897 234 121.951Z" stroke="black" stroke-opacity="0.055" stroke-width="20"/>
</g>
<g id="Ellipse 4">
<path d="M72 634.451C72 645.109 63.554 653.451 53.5 653.451C43.446 653.451 35 645.109 35 634.451C35 623.793 43.446 615.451 53.5 615.451C63.554 615.451 72 623.793 72 634.451Z" stroke="#FEABD5" stroke-width="20"/>
<path d="M72 634.451C72 645.109 63.554 653.451 53.5 653.451C43.446 653.451 35 645.109 35 634.451C35 623.793 43.446 615.451 53.5 615.451C63.554 615.451 72 623.793 72 634.451Z" stroke="black" stroke-opacity="0.055" stroke-width="20"/>
</g>
<g id="Ellipse 5">
<circle cx="150" cy="659.451" r="19" stroke="#FEABD5" stroke-width="20"/>
<circle cx="150" cy="659.451" r="19" stroke="black" stroke-opacity="0.055" stroke-width="20"/>
</g>
<g id="Ellipse 6">
<path d="M196 388.951C196 399.005 187.658 407.451 177 407.451C166.342 407.451 158 399.005 158 388.951C158 378.897 166.342 370.451 177 370.451C187.658 370.451 196 378.897 196 388.951Z" stroke="#FEABD5" stroke-width="20"/>
<path d="M196 388.951C196 399.005 187.658 407.451 177 407.451C166.342 407.451 158 399.005 158 388.951C158 378.897 166.342 370.451 177 370.451C187.658 370.451 196 378.897 196 388.951Z" stroke="black" stroke-opacity="0.055" stroke-width="20"/>
</g>
<g id="Ellipse 7">
<path d="M196 519.951C196 530.005 187.658 538.451 177 538.451C166.342 538.451 158 530.005 158 519.951C158 509.897 166.342 501.451 177 501.451C187.658 501.451 196 509.897 196 519.951Z" stroke="#FEABD5" stroke-width="20"/>
<path d="M196 519.951C196 530.005 187.658 538.451 177 538.451C166.342 538.451 158 530.005 158 519.951C158 509.897 166.342 501.451 177 501.451C187.658 501.451 196 509.897 196 519.951Z" stroke="black" stroke-opacity="0.055" stroke-width="20"/>
</g>
<g id="Ellipse 8">
<path d="M310 41.4514C310 52.1095 301.554 60.4514 291.5 60.4514C281.446 60.4514 273 52.1095 273 41.4514C273 30.7933 281.446 22.4514 291.5 22.4514C301.554 22.4514 310 30.7933 310 41.4514Z" stroke="#FEABD5" stroke-width="20"/>
<path d="M310 41.4514C310 52.1095 301.554 60.4514 291.5 60.4514C281.446 60.4514 273 52.1095 273 41.4514C273 30.7933 281.446 22.4514 291.5 22.4514C301.554 22.4514 310 30.7933 310 41.4514Z" stroke="black" stroke-opacity="0.055" stroke-width="20"/>
</g>
<g id="Ellipse 9">
<circle cx="331" cy="309.451" r="19" stroke="#FEABD5" stroke-width="20"/>
<circle cx="331" cy="309.451" r="19" stroke="black" stroke-opacity="0.055" stroke-width="20"/>
</g>
<g id="Ellipse 10">
<path d="M295 549.451C295 560.109 286.554 568.451 276.5 568.451C266.446 568.451 258 560.109 258 549.451C258 538.793 266.446 530.451 276.5 530.451C286.554 530.451 295 538.793 295 549.451Z" stroke="#FEABD5" stroke-width="20"/>
<path d="M295 549.451C295 560.109 286.554 568.451 276.5 568.451C266.446 568.451 258 560.109 258 549.451C258 538.793 266.446 530.451 276.5 530.451C286.554 530.451 295 538.793 295 549.451Z" stroke="black" stroke-opacity="0.055" stroke-width="20"/>
</g>
<g id="Ellipse 11">
<circle cx="362.5" cy="169.951" r="18.5" stroke="#FEABD5" stroke-width="20"/>
<circle cx="362.5" cy="169.951" r="18.5" stroke="black" stroke-opacity="0.055" stroke-width="20"/>
</g>
<g id="Ellipse 12">
<path d="M171 293.951C171 304.005 162.658 312.451 152 312.451C141.342 312.451 133 304.005 133 293.951C133 283.897 141.342 275.451 152 275.451C162.658 275.451 171 283.897 171 293.951Z" stroke="#FEABD5" stroke-width="20"/>
<path d="M171 293.951C171 304.005 162.658 312.451 152 312.451C141.342 312.451 133 304.005 133 293.951C133 283.897 141.342 275.451 152 275.451C162.658 275.451 171 283.897 171 293.951Z" stroke="black" stroke-opacity="0.055" stroke-width="20"/>
</g>
<g id="Ellipse 13">
<circle cx="260" cy="239.451" r="19" stroke="#FEABD5" stroke-width="20"/>
<circle cx="260" cy="239.451" r="19" stroke="black" stroke-opacity="0.055" stroke-width="20"/>
</g>
<g id="Ellipse 14">
<circle cx="53.5" cy="421.951" r="18.5" stroke="#FEABD5" stroke-width="20"/>
<circle cx="53.5" cy="421.951" r="18.5" stroke="black" stroke-opacity="0.055" stroke-width="20"/>
</g>
<g id="Ellipse 15">
<path d="M324 402.951C324 413.005 315.658 421.451 305 421.451C294.342 421.451 286 413.005 286 402.951C286 392.897 294.342 384.451 305 384.451C315.658 384.451 324 392.897 324 402.951Z" stroke="#FEABD5" stroke-width="20"/>
<path d="M324 402.951C324 413.005 315.658 421.451 305 421.451C294.342 421.451 286 413.005 286 402.951C286 392.897 294.342 384.451 305 384.451C315.658 384.451 324 392.897 324 402.951Z" stroke="black" stroke-opacity="0.055" stroke-width="20"/>
</g>
<g id="Ellipse 16">
<circle cx="377.5" cy="551.951" r="18.5" stroke="#FEABD5" stroke-width="20"/>
<circle cx="377.5" cy="551.951" r="18.5" stroke="black" stroke-opacity="0.055" stroke-width="20"/>
</g>
<g id="Ellipse 17">
<path d="M279 671.951C279 682.005 270.658 690.451 260 690.451C249.342 690.451 241 682.005 241 671.951C241 661.897 249.342 653.451 260 653.451C270.658 653.451 279 661.897 279 671.951Z" stroke="#FEABD5" stroke-width="20"/>
<path d="M279 671.951C279 682.005 270.658 690.451 260 690.451C249.342 690.451 241 682.005 241 671.951C241 661.897 249.342 653.451 260 653.451C270.658 653.451 279 661.897 279 671.951Z" stroke="black" stroke-opacity="0.055" stroke-width="20"/>
</g>
<g id="Ellipse 18">
<path d="M54 523.451C54 534.109 45.554 542.451 35.5 542.451C25.446 542.451 17 534.109 17 523.451C17 512.793 25.446 504.451 35.5 504.451C45.554 504.451 54 512.793 54 523.451Z" stroke="#FEABD5" stroke-width="20"/>
<path d="M54 523.451C54 534.109 45.554 542.451 35.5 542.451C25.446 542.451 17 534.109 17 523.451C17 512.793 25.446 504.451 35.5 504.451C45.554 504.451 54 512.793 54 523.451Z" stroke="black" stroke-opacity="0.055" stroke-width="20"/>
</g>
<g id="cross 1">
<g id="Rectangle 1">
<rect x="347.454" y="379.977" width="57.3751" height="19.125" rx="9.56251" transform="rotate(-20 347.454 379.977)" fill="#FEABD5"/>
<rect x="347.454" y="379.977" width="57.3751" height="19.125" rx="9.56251" transform="rotate(-20 347.454 379.977)" fill="black" fill-opacity="0.055"/>
</g>
<g id="Rectangle 2">
<rect x="378.508" y="409.379" width="57.3751" height="19.125" rx="9.56251" transform="rotate(-110 378.508 409.379)" fill="#FEABD5"/>
<rect x="378.508" y="409.379" width="57.3751" height="19.125" rx="9.56251" transform="rotate(-110 378.508 409.379)" fill="black" fill-opacity="0.055"/>
</g>
</g>
<g id="cross 2">
<g id="Rectangle 1_2">
<rect x="35.1916" y="150.908" width="57.3751" height="19.125" rx="9.56251" transform="rotate(-20 35.1916 150.908)" fill="#FEABD5"/>
<rect x="35.1916" y="150.908" width="57.3751" height="19.125" rx="9.56251" transform="rotate(-20 35.1916 150.908)" fill="black" fill-opacity="0.055"/>
</g>
<g id="Rectangle 2_2">
<rect x="66.2455" y="180.31" width="57.3751" height="19.125" rx="9.56251" transform="rotate(-110 66.2455 180.31)" fill="#FEABD5"/>
<rect x="66.2455" y="180.31" width="57.3751" height="19.125" rx="9.56251" transform="rotate(-110 66.2455 180.31)" fill="black" fill-opacity="0.055"/>
</g>
</g>
<g id="cross 17">
<g id="Rectangle 1_3">
<rect x="35.1916" y="150.908" width="57.3751" height="19.125" rx="9.56251" transform="rotate(-20 35.1916 150.908)" fill="#FEABD5"/>
<rect x="35.1916" y="150.908" width="57.3751" height="19.125" rx="9.56251" transform="rotate(-20 35.1916 150.908)" fill="black" fill-opacity="0.055"/>
</g>
<g id="Rectangle 2_3">
<rect x="66.2455" y="180.31" width="57.3751" height="19.125" rx="9.56251" transform="rotate(-110 66.2455 180.31)" fill="#FEABD5"/>
<rect x="66.2455" y="180.31" width="57.3751" height="19.125" rx="9.56251" transform="rotate(-110 66.2455 180.31)" fill="black" fill-opacity="0.055"/>
</g>
</g>
<g id="cross 18">
<g id="Rectangle 1_4">
<rect x="13.5411" y="31.5951" width="57.3751" height="19.125" rx="9.56251" transform="rotate(-20 13.5411 31.5951)" fill="#FEABD5"/>
<rect x="13.5411" y="31.5951" width="57.3751" height="19.125" rx="9.56251" transform="rotate(-20 13.5411 31.5951)" fill="black" fill-opacity="0.055"/>
</g>
<g id="Rectangle 2_4">
<rect x="44.5951" y="60.9973" width="57.3751" height="19.125" rx="9.56251" transform="rotate(-110 44.5951 60.9973)" fill="#FEABD5"/>
<rect x="44.5951" y="60.9973" width="57.3751" height="19.125" rx="9.56251" transform="rotate(-110 44.5951 60.9973)" fill="black" fill-opacity="0.055"/>
</g>
</g>
<g id="cross 3">
<g id="Rectangle 1_5">
<rect x="303.467" y="480.383" width="57.3751" height="19.125" rx="9.56251" transform="rotate(-20 303.467 480.383)" fill="#FEABD5"/>
<rect x="303.467" y="480.383" width="57.3751" height="19.125" rx="9.56251" transform="rotate(-20 303.467 480.383)" fill="black" fill-opacity="0.055"/>
</g>
<g id="Rectangle 2_5">
<rect x="334.521" y="509.785" width="57.3751" height="19.125" rx="9.56251" transform="rotate(-110 334.521 509.785)" fill="#FEABD5"/>
<rect x="334.521" y="509.785" width="57.3751" height="19.125" rx="9.56251" transform="rotate(-110 334.521 509.785)" fill="black" fill-opacity="0.055"/>
</g>
</g>
<g id="cross 4">
<g id="Rectangle 1_6">
<rect x="337.892" y="54.8513" width="57.3751" height="19.125" rx="9.56251" transform="rotate(-20 337.892 54.8513)" fill="#FEABD5"/>
<rect x="337.892" y="54.8513" width="57.3751" height="19.125" rx="9.56251" transform="rotate(-20 337.892 54.8513)" fill="black" fill-opacity="0.055"/>
</g>
<g id="Rectangle 2_6">
<rect x="368.946" y="84.2535" width="57.3751" height="19.125" rx="9.56251" transform="rotate(-110 368.946 84.2535)" fill="#FEABD5"/>
<rect x="368.946" y="84.2535" width="57.3751" height="19.125" rx="9.56251" transform="rotate(-110 368.946 84.2535)" fill="black" fill-opacity="0.055"/>
</g>
</g>
<g id="cross 5">
<g id="Rectangle 1_7">
<rect x="212.098" y="331.64" width="57.3751" height="19.125" rx="9.56251" transform="rotate(-20 212.098 331.64)" fill="#FEABD5"/>
<rect x="212.098" y="331.64" width="57.3751" height="19.125" rx="9.56251" transform="rotate(-20 212.098 331.64)" fill="black" fill-opacity="0.055"/>
</g>
<g id="Rectangle 2_7">
<rect x="243.152" y="361.042" width="57.3751" height="19.125" rx="9.56251" transform="rotate(-110 243.152 361.042)" fill="#FEABD5"/>
<rect x="243.152" y="361.042" width="57.3751" height="19.125" rx="9.56251" transform="rotate(-110 243.152 361.042)" fill="black" fill-opacity="0.055"/>
</g>
</g>
<g id="cross 6">
<g id="Rectangle 1_8">
<rect x="160.029" y="38.5951" width="57.3751" height="19.125" rx="9.56251" transform="rotate(-20 160.029 38.5951)" fill="#FEABD5"/>
<rect x="160.029" y="38.5951" width="57.3751" height="19.125" rx="9.56251" transform="rotate(-20 160.029 38.5951)" fill="black" fill-opacity="0.055"/>
</g>
<g id="Rectangle 2_8">
<rect x="191.083" y="67.9973" width="57.3751" height="19.125" rx="9.56251" transform="rotate(-110 191.083 67.9973)" fill="#FEABD5"/>
<rect x="191.083" y="67.9973" width="57.3751" height="19.125" rx="9.56251" transform="rotate(-110 191.083 67.9973)" fill="black" fill-opacity="0.055"/>
</g>
</g>
<g id="cross 7">
<g id="Rectangle 1_9">
<rect x="198.279" y="451.696" width="57.3751" height="19.125" rx="9.56251" transform="rotate(-20 198.279 451.696)" fill="#FEABD5"/>
<rect x="198.279" y="451.696" width="57.3751" height="19.125" rx="9.56251" transform="rotate(-20 198.279 451.696)" fill="black" fill-opacity="0.055"/>
</g>
<g id="Rectangle 2_9">
<rect x="229.333" y="481.098" width="57.3751" height="19.125" rx="9.56251" transform="rotate(-110 229.333 481.098)" fill="#FEABD5"/>
<rect x="229.333" y="481.098" width="57.3751" height="19.125" rx="9.56251" transform="rotate(-110 229.333 481.098)" fill="black" fill-opacity="0.055"/>
</g>
</g>
<g id="cross 8">
<g id="Rectangle 1_10">
<rect x="156.204" y="210.72" width="57.3751" height="19.125" rx="9.56251" transform="rotate(-20 156.204 210.72)" fill="#FEABD5"/>
<rect x="156.204" y="210.72" width="57.3751" height="19.125" rx="9.56251" transform="rotate(-20 156.204 210.72)" fill="black" fill-opacity="0.055"/>
</g>
<g id="Rectangle 2_10">
<rect x="187.258" y="240.122" width="57.3751" height="19.125" rx="9.56251" transform="rotate(-110 187.258 240.122)" fill="#FEABD5"/>
<rect x="187.258" y="240.122" width="57.3751" height="19.125" rx="9.56251" transform="rotate(-110 187.258 240.122)" fill="black" fill-opacity="0.055"/>
</g>
</g>
<g id="cross 9">
<g id="Rectangle 1_11">
<rect x="323.979" y="240.796" width="57.3751" height="19.125" rx="9.56251" transform="rotate(-20 323.979 240.796)" fill="#FEABD5"/>
<rect x="323.979" y="240.796" width="57.3751" height="19.125" rx="9.56251" transform="rotate(-20 323.979 240.796)" fill="black" fill-opacity="0.055"/>
</g>
<g id="Rectangle 2_11">
<rect x="355.033" y="270.198" width="57.3751" height="19.125" rx="9.56251" transform="rotate(-110 355.033 270.198)" fill="#FEABD5"/>
<rect x="355.033" y="270.198" width="57.3751" height="19.125" rx="9.56251" transform="rotate(-110 355.033 270.198)" fill="black" fill-opacity="0.055"/>
</g>
</g>
<g id="cross 10">
<g id="Rectangle 1_12">
<rect x="43.5412" y="329.595" width="57.3751" height="19.125" rx="9.56251" transform="rotate(-20 43.5412 329.595)" fill="#FEABD5"/>
<rect x="43.5412" y="329.595" width="57.3751" height="19.125" rx="9.56251" transform="rotate(-20 43.5412 329.595)" fill="black" fill-opacity="0.055"/>
</g>
<g id="Rectangle 2_12">
<rect x="74.5951" y="358.997" width="57.3751" height="19.125" rx="9.56251" transform="rotate(-110 74.5951 358.997)" fill="#FEABD5"/>
<rect x="74.5951" y="358.997" width="57.3751" height="19.125" rx="9.56251" transform="rotate(-110 74.5951 358.997)" fill="black" fill-opacity="0.055"/>
</g>
</g>
<g id="cross 20">
<g id="Rectangle 1_13">
<rect x="0.541153" y="247.595" width="57.3751" height="19.125" rx="9.56251" transform="rotate(-20 0.541153 247.595)" fill="#FEABD5"/>
<rect x="0.541153" y="247.595" width="57.3751" height="19.125" rx="9.56251" transform="rotate(-20 0.541153 247.595)" fill="black" fill-opacity="0.055"/>
</g>
<g id="Rectangle 2_13">
<rect x="31.5951" y="276.997" width="57.3751" height="19.125" rx="9.56251" transform="rotate(-110 31.5951 276.997)" fill="#FEABD5"/>
<rect x="31.5951" y="276.997" width="57.3751" height="19.125" rx="9.56251" transform="rotate(-110 31.5951 276.997)" fill="black" fill-opacity="0.055"/>
</g>
</g>
<g id="cross 11">
<g id="Rectangle 1_14">
<rect x="79.7038" y="572.183" width="57.3751" height="19.125" rx="9.56251" transform="rotate(-20 79.7038 572.183)" fill="#FEABD5"/>
<rect x="79.7038" y="572.183" width="57.3751" height="19.125" rx="9.56251" transform="rotate(-20 79.7038 572.183)" fill="black" fill-opacity="0.055"/>
</g>
<g id="Rectangle 2_14">
<rect x="110.758" y="601.585" width="57.3751" height="19.125" rx="9.56251" transform="rotate(-110 110.758 601.585)" fill="#FEABD5"/>
<rect x="110.758" y="601.585" width="57.3751" height="19.125" rx="9.56251" transform="rotate(-110 110.758 601.585)" fill="black" fill-opacity="0.055"/>
</g>
</g>
<g id="cross 19">
<g id="Rectangle 1_15">
<rect x="55.5411" y="705.595" width="57.3751" height="19.125" rx="9.56251" transform="rotate(-20 55.5411 705.595)" fill="#FEABD5"/>
<rect x="55.5411" y="705.595" width="57.3751" height="19.125" rx="9.56251" transform="rotate(-20 55.5411 705.595)" fill="black" fill-opacity="0.055"/>
</g>
<g id="Rectangle 2_15">
<rect x="86.5951" y="734.997" width="57.3751" height="19.125" rx="9.56251" transform="rotate(-110 86.5951 734.997)" fill="#FEABD5"/>
<rect x="86.5951" y="734.997" width="57.3751" height="19.125" rx="9.56251" transform="rotate(-110 86.5951 734.997)" fill="black" fill-opacity="0.055"/>
</g>
</g>
<g id="cross 12">
<g id="Rectangle 1_16">
<rect x="261.392" y="139.958" width="57.3751" height="19.125" rx="9.56251" transform="rotate(-20 261.392 139.958)" fill="#FEABD5"/>
<rect x="261.392" y="139.958" width="57.3751" height="19.125" rx="9.56251" transform="rotate(-20 261.392 139.958)" fill="black" fill-opacity="0.055"/>
</g>
<g id="Rectangle 2_16">
<rect x="292.445" y="169.36" width="57.3751" height="19.125" rx="9.56251" transform="rotate(-110 292.445 169.36)" fill="#FEABD5"/>
<rect x="292.445" y="169.36" width="57.3751" height="19.125" rx="9.56251" transform="rotate(-110 292.445 169.36)" fill="black" fill-opacity="0.055"/>
</g>
</g>
<g id="cross 13">
<g id="Rectangle 1_17">
<rect x="92.5667" y="462.646" width="57.3751" height="19.125" rx="9.56251" transform="rotate(-20 92.5667 462.646)" fill="#FEABD5"/>
<rect x="92.5667" y="462.646" width="57.3751" height="19.125" rx="9.56251" transform="rotate(-20 92.5667 462.646)" fill="black" fill-opacity="0.055"/>
</g>
<g id="Rectangle 2_17">
<rect x="123.621" y="492.048" width="57.3751" height="19.125" rx="9.56251" transform="rotate(-110 123.621 492.048)" fill="#FEABD5"/>
<rect x="123.621" y="492.048" width="57.3751" height="19.125" rx="9.56251" transform="rotate(-110 123.621 492.048)" fill="black" fill-opacity="0.055"/>
</g>
</g>
<g id="cross 14">
<g id="Rectangle 1_18">
<rect x="188.716" y="600.871" width="57.3751" height="19.125" rx="9.56251" transform="rotate(-20 188.716 600.871)" fill="#FEABD5"/>
<rect x="188.716" y="600.871" width="57.3751" height="19.125" rx="9.56251" transform="rotate(-20 188.716 600.871)" fill="black" fill-opacity="0.055"/>
</g>
<g id="Rectangle 2_18">
<rect x="219.77" y="630.273" width="57.3751" height="19.125" rx="9.56251" transform="rotate(-110 219.77 630.273)" fill="#FEABD5"/>
<rect x="219.77" y="630.273" width="57.3751" height="19.125" rx="9.56251" transform="rotate(-110 219.77 630.273)" fill="black" fill-opacity="0.055"/>
</g>
</g>
<g id="cross 15">
<g id="Rectangle 1_19">
<rect x="310.592" y="636.684" width="57.3751" height="19.125" rx="9.56251" transform="rotate(-20 310.592 636.684)" fill="#FEABD5"/>
<rect x="310.592" y="636.684" width="57.3751" height="19.125" rx="9.56251" transform="rotate(-20 310.592 636.684)" fill="black" fill-opacity="0.055"/>
</g>
<g id="Rectangle 2_19">
<rect x="341.646" y="666.086" width="57.3751" height="19.125" rx="9.56251" transform="rotate(-110 341.646 666.086)" fill="#FEABD5"/>
<rect x="341.646" y="666.086" width="57.3751" height="19.125" rx="9.56251" transform="rotate(-110 341.646 666.086)" fill="black" fill-opacity="0.055"/>
</g>
</g>
<g id="cross 16">
<g id="Rectangle 1_20">
<rect x="111.692" y="148.996" width="57.3751" height="19.125" rx="9.56251" transform="rotate(-20 111.692 148.996)" fill="#FEABD5"/>
<rect x="111.692" y="148.996" width="57.3751" height="19.125" rx="9.56251" transform="rotate(-20 111.692 148.996)" fill="black" fill-opacity="0.055"/>
</g>
<g id="Rectangle 2_20">
<rect x="142.746" y="178.398" width="57.3751" height="19.125" rx="9.56251" transform="rotate(-110 142.746 178.398)" fill="#FEABD5"/>
<rect x="142.746" y="178.398" width="57.3751" height="19.125" rx="9.56251" transform="rotate(-110 142.746 178.398)" fill="black" fill-opacity="0.055"/>
</g>
</g>
</svg>
