<svg width="617" height="291" viewBox="0 0 617 291" fill="none" xmlns="http://www.w3.org/2000/svg">
<rect width="617" height="291" fill="#E5E5E5"/>
<g id="Smile">
<path id="lips" d="M603 33.5C603 65.0872 595.551 96.4478 580.976 125.818C566.395 155.2 544.933 182.077 517.671 204.832C490.406 227.59 457.908 245.747 421.983 258.167C386.06 270.588 347.492 277 308.5 277C269.508 277 230.94 270.588 195.017 258.167C159.092 245.747 126.594 227.59 99.3287 204.832C72.0668 182.077 50.605 155.2 36.0239 125.818C21.449 96.4477 14 65.0872 14 33.5" stroke="black" stroke-width="28"/>
<ellipse id="endLeft" cx="14" cy="33.5" rx="14" ry="13.5" fill="black"/>
<ellipse id="endRight" cx="603" cy="34.5" rx="14" ry="13.5" fill="black"/>
</g>
<g id="Eyes">
<path id="lowerLeftEyeLid" d="M289.5 0C289.5 11.7533 287.185 23.3915 282.687 34.2502C278.189 45.1088 271.597 54.9752 263.286 63.2861C254.975 71.5969 245.109 78.1894 234.25 82.6872C223.392 87.185 211.753 89.5 200 89.5C188.247 89.5 176.608 87.185 165.75 82.6872C154.891 78.1894 145.025 71.5969 136.714 63.2861C128.403 54.9752 121.811 45.1088 117.313 34.2502C112.815 23.3915 110.5 11.7533 110.5 -7.82434e-06" stroke="black" stroke-width="15"/>
<path id="lowerRightEyeLid" d="M507.5 0C507.5 11.7533 505.185 23.3915 500.687 34.2502C496.189 45.1088 489.597 54.9752 481.286 63.2861C472.975 71.5969 463.109 78.1894 452.25 82.6872C441.392 87.185 429.753 89.5 418 89.5C406.247 89.5 394.608 87.185 383.75 82.6872C372.891 78.1894 363.025 71.5969 354.714 63.2861C346.403 54.9752 339.811 45.1088 335.313 34.2502C330.815 23.3915 328.5 11.7533 328.5 -7.82434e-06" stroke="black" stroke-width="15"/>
</g>
</svg>
