<svg xmlns="http://www.w3.org/2000/svg" width="617" height="354" viewBox="0 0 617 354" fill="none"><style>.a{fill:white;}.b{fill:black;}</style><rect width="617" height="354" fill="#E5E5E5"/><mask class="a"><path d="M617 96.5C617 130.3 609 163.8 593.5 195 578 226.3 555.3 254.7 526.6 278.6 498 302.5 464 321.5 426.6 334.4 389.1 347.3 349 354 308.5 354 268 354 227.9 347.3 190.4 334.4 153 321.5 119 302.5 90.4 278.6 61.7 254.7 39 226.3 23.5 195 8 163.8 0 130.3 0 96.5H28C28 127.2 35.3 157.7 49.4 186.1 63.5 214.5 84.1 240.3 110.2 262 136.2 283.8 167.1 301 201.2 312.8 235.2 324.6 271.7 330.6 308.5 330.6 345.3 330.6 381.8 324.6 415.8 312.8 449.9 301 480.8 283.8 506.8 262 532.9 240.3 553.5 214.5 567.6 186.1 581.7 157.7 589 127.2 589 96.5H617Z"/></mask><path d="M617 96.5C617 130.3 609 163.8 593.5 195 578 226.3 555.3 254.7 526.6 278.6 498 302.5 464 321.5 426.6 334.4 389.1 347.3 349 354 308.5 354 268 354 227.9 347.3 190.4 334.4 153 321.5 119 302.5 90.4 278.6 61.7 254.7 39 226.3 23.5 195 8 163.8 0 130.3 0 96.5H28C28 127.2 35.3 157.7 49.4 186.1 63.5 214.5 84.1 240.3 110.2 262 136.2 283.8 167.1 301 201.2 312.8 235.2 324.6 271.7 330.6 308.5 330.6 345.3 330.6 381.8 324.6 415.8 312.8 449.9 301 480.8 283.8 506.8 262 532.9 240.3 553.5 214.5 567.6 186.1 581.7 157.7 589 127.2 589 96.5H617Z" mask="url(#path-1-inside-1)" style="fill:black;stroke-width:2;stroke:black"/><ellipse cx="14" cy="96.5" rx="14" ry="13.5" class="b"/><ellipse cx="603" cy="97.5" rx="14" ry="13.5" class="b"/><circle cx="227" cy="97" r="97" class="a"/><circle cx="226.5" cy="97.5" r="48.5" class="b"/><circle cx="391" cy="97" r="97" class="a"/><circle cx="390.5" cy="97.5" r="48.5" class="b"/></svg>