<svg width="617" height="354" viewBox="0 0 617 354" fill="none" xmlns="http://www.w3.org/2000/svg">
<rect width="617" height="354" fill="#E5E5E5"/>
<g id="Smile">
<g id="lips">
<mask id="path-1-inside-1" fill="white">
<path d="M617 96.5C617 130.315 609.02 163.8 593.517 195.041C578.013 226.282 555.289 254.669 526.642 278.58C497.996 302.491 463.987 321.458 426.558 334.399C389.129 347.34 349.013 354 308.5 354C267.987 354 227.871 347.34 190.442 334.399C153.013 321.458 119.004 302.491 90.3575 278.58C61.7107 254.669 38.9867 226.282 23.4832 195.041C7.97958 163.8 -3.54174e-06 130.315 0 96.5H28.0109C28.0109 127.245 35.266 157.689 49.3618 186.094C63.4577 214.498 84.1184 240.308 110.164 262.048C136.21 283.788 167.131 301.033 201.161 312.798C235.192 324.564 271.666 330.62 308.5 330.62C345.334 330.62 381.808 324.564 415.839 312.798C449.869 301.033 480.79 283.788 506.836 262.048C532.882 240.308 553.542 214.498 567.638 186.094C581.734 157.689 588.989 127.245 588.989 96.5H617Z"/>
</mask>
<path d="M617 96.5C617 130.315 609.02 163.8 593.517 195.041C578.013 226.282 555.289 254.669 526.642 278.58C497.996 302.491 463.987 321.458 426.558 334.399C389.129 347.34 349.013 354 308.5 354C267.987 354 227.871 347.34 190.442 334.399C153.013 321.458 119.004 302.491 90.3575 278.58C61.7107 254.669 38.9867 226.282 23.4832 195.041C7.97958 163.8 -3.54174e-06 130.315 0 96.5H28.0109C28.0109 127.245 35.266 157.689 49.3618 186.094C63.4577 214.498 84.1184 240.308 110.164 262.048C136.21 283.788 167.131 301.033 201.161 312.798C235.192 324.564 271.666 330.62 308.5 330.62C345.334 330.62 381.808 324.564 415.839 312.798C449.869 301.033 480.79 283.788 506.836 262.048C532.882 240.308 553.542 214.498 567.638 186.094C581.734 157.689 588.989 127.245 588.989 96.5H617Z" fill="black" stroke="black" stroke-width="2" mask="url(#path-1-inside-1)"/>
</g>
<ellipse id="endLeft" cx="14" cy="96.5" rx="14" ry="13.5" fill="black"/>
<ellipse id="endRight" cx="603" cy="97.5" rx="14" ry="13.5" fill="black"/>
</g>
<g id="Eyes">
<circle id="leftEye" cx="227" cy="97" r="97" fill="white"/>
<circle id="leftPupil" cx="226.5" cy="97.5" r="48.5" fill="black"/>
<circle id="rightEye" cx="391" cy="97" r="97" fill="white"/>
<circle id="rightPupil" cx="390.5" cy="97.5" r="48.5" fill="black"/>
</g>
</svg>
